<svg width="123" height="60" viewBox="0 0 123 60" fill="none" xmlns="http://www.w3.org/2000/svg">
<path d="M114.575 31.6007C113.135 31.5532 111.699 31.5059 110.258 31.5534C103.565 31.831 95.9862 33.0005 91.2272 38.1392C88.9565 40.5919 87.7243 43.6299 87.8983 46.9656C88.0121 48.8522 88.5185 50.6956 89.3862 52.3814C89.3782 52.3956 89.3702 52.4098 89.3622 52.4238C89.3578 52.4314 89.3535 52.439 89.3491 52.4464C89.0939 52.8758 88.5543 53.4731 88.01 54.0755C87.3215 54.8378 86.6256 55.6082 86.4887 56.0569C86.4541 56.1708 86.4796 56.3098 86.5127 56.4212C86.6253 56.7964 87.0165 57.0896 87.3235 57.3196L87.3465 57.3369C88.0198 56.6842 88.6312 55.9751 89.2426 55.2661L89.2914 55.2096L90.5286 53.7199C93.8145 55.5568 97.0411 56.1366 100.727 55.1283C105.24 53.8939 108.73 50.7282 110.979 46.7509C113.483 42.3232 114.636 36.6377 114.803 31.6082L114.575 31.6007ZM108.037 36.0384C108.055 36.0428 108.072 36.047 108.088 36.0512C108.249 36.091 108.394 36.1272 108.53 36.2336C108.675 36.3474 108.789 36.5288 108.779 36.7146C108.767 36.9368 108.685 37.0484 108.53 37.2037C108.047 37.6855 107.463 38.1087 106.89 38.5242C106.637 38.7078 106.385 38.8899 106.146 39.0748C104.63 40.2319 103.136 41.4157 101.664 42.6257C102.594 42.4037 105.71 41.8775 106.521 42.1508C106.771 42.2362 106.855 42.3573 106.957 42.5883C106.935 42.9298 106.829 43.1372 106.499 43.2803C106.349 43.3457 105.231 43.4528 103.978 43.573C102.55 43.7099 100.946 43.8636 100.396 43.9918C100.047 44.0731 99.7712 44.1878 99.4784 44.3903C99.0353 44.6967 98.6346 45.0793 98.2392 45.4569C98.0921 45.5973 97.9458 45.737 97.7983 45.8719C96.4992 47.0608 95.2249 48.2586 93.9795 49.5027C94.8643 49.6954 96.1653 49.6337 97.4248 49.5739C98.8434 49.5066 100.21 49.4418 100.869 49.7459C100.977 49.8825 101.008 50.0272 100.994 50.2012C100.981 50.3411 100.9 50.4289 100.8 50.5192C100.255 51.0079 94.8851 50.8518 94.0521 50.7583C94.0184 50.753 93.9835 50.7471 93.9479 50.7411C93.7624 50.7098 93.5565 50.675 93.3807 50.7111C92.0322 50.9852 90.1846 53.0441 89.3821 54.076L89.4312 53.9631C89.8056 53.1017 90.1818 52.2363 90.7026 51.4487C91.5843 50.1142 94.0876 47.6438 95.3149 46.4761C95.5098 46.2907 95.7373 46.1019 95.9716 45.9075C96.4892 45.4779 97.0401 45.0207 97.3455 44.5131C97.6532 44.0014 97.8364 42.9314 98.0287 41.8084C98.2704 40.3973 98.5264 38.9023 99.0619 38.3256C99.2178 38.1581 99.2648 38.1481 99.4784 38.1264C99.6896 38.2178 99.8248 38.3065 99.9444 38.5083C100.032 38.6556 100.043 38.8026 100.02 38.9667C99.9652 39.3643 99.8235 39.7825 99.6849 40.1919C99.6099 40.4133 99.5358 40.6321 99.4768 40.8436C99.2759 41.5629 99.1237 42.2937 98.9716 43.0239C98.9545 43.1061 98.9372 43.1891 98.92 43.2713C99.6283 42.5988 100.424 42.001 101.213 41.4082C101.469 41.2161 101.724 41.0245 101.975 40.8311C102.355 40.5383 102.737 40.246 103.119 39.9535C104.783 38.6796 106.455 37.399 108.037 36.0384Z" fill="white"/>
<path d="M9.8343 0.0655843C9.80823 0.0683538 9.78257 0.0739622 9.75676 0.0781909C6.90008 0.416069 4.31444 1.70325 2.51343 3.94867C0.308331 6.6977 -0.29492 10.2097 0.124323 13.6299C0.487567 16.5932 1.86199 19.3916 4.28879 21.2337C6.71245 23.0736 9.53151 23.5937 12.5245 23.364C15.4356 22.9698 18.0616 21.6705 19.8701 19.3416C21.9682 16.6397 22.5453 13.0711 22.0875 9.75793C21.6718 6.74901 20.1527 3.94608 17.6702 2.1117C15.4205 0.449491 12.6213 -0.225123 9.8343 0.0655843ZM10.7677 3.90322C12.3312 3.88419 13.7467 4.17343 14.9769 5.17682C16.4817 6.40423 17.1629 8.34162 17.336 10.2069C17.5589 12.6092 17.2931 15.4476 15.6555 17.3682C14.528 18.6907 13.082 19.219 11.3782 19.3674C11.3467 19.3705 11.3151 19.3751 11.2834 19.3768C9.83867 19.4498 8.3331 19.0284 7.21476 18.1108C5.67916 16.8509 5.02963 14.9346 4.86683 13.0254C4.66285 10.6345 4.85223 7.72011 6.50939 5.80801C7.63187 4.51294 9.08935 4.02365 10.7677 3.90322Z" fill="white"/>
<path d="M44.5942 6.094C44.5842 6.0951 44.5743 6.0962 44.5643 6.09721C42.6119 6.28295 40.9459 7.04636 39.6744 8.54813C38.0855 10.425 37.544 13.0588 37.7804 15.448C37.9795 17.4602 38.8175 19.4468 40.4432 20.7396C42.0827 22.0434 44.1828 22.3506 46.2291 22.1059C47.841 21.9131 48.905 21.2044 50.0199 20.0843C50.0216 20.1929 50.0237 20.3036 50.0259 20.4161C50.0555 21.9339 50.0913 23.7694 48.9493 24.8971C48.1816 25.6551 47.0813 25.8167 46.042 25.7953C44.9182 25.7722 43.7861 25.5166 42.9867 24.676C42.7603 24.4378 42.6121 24.1425 42.4659 23.8511C42.4402 23.7999 42.4145 23.7488 42.3885 23.6981C41.981 23.697 41.5577 23.6832 41.1284 23.6692C40.0881 23.6352 39.0125 23.6001 38.0419 23.7421C37.9575 23.9624 38.0201 24.2004 38.0797 24.4268C38.0915 24.4718 38.1032 24.5164 38.1137 24.5602C38.694 26.2722 39.9301 27.5912 41.5588 28.4056C43.8723 29.5624 47.1641 29.6636 49.6041 28.8582C51.3995 28.2657 52.9479 27.0666 53.7941 25.3777C54.1194 24.7154 54.3285 24.0036 54.4126 23.2723C54.5805 21.9328 54.5662 20.5257 54.5522 19.1431C54.5471 18.6405 54.5421 18.1411 54.5458 17.6494L54.5732 6.46518C54.1273 6.46581 53.6812 6.46775 53.2351 6.46969C52.1904 6.47421 51.1455 6.47875 50.1014 6.46656L50.0987 7.93093C48.4588 6.59561 46.8122 5.92507 44.6509 6.08835C44.6319 6.08979 44.6131 6.09189 44.5942 6.094ZM45.7793 9.66527C46.6486 9.59241 47.5592 9.74358 48.3082 10.1984C49.1646 10.7183 49.6962 11.5595 49.9299 12.5113C50.2658 13.8789 50.2424 15.7535 49.4647 16.9692C48.8459 17.9369 47.9543 18.3007 46.868 18.5248C45.9074 18.6296 44.9174 18.5084 44.1023 17.9573C43.1425 17.3085 42.6223 16.2436 42.4298 15.1382C42.1967 13.7994 42.3562 12.2326 43.1864 11.1123C43.8307 10.2429 44.7247 9.82051 45.7793 9.66527Z" fill="white"/>
<path d="M74.8997 38.2237C73.4744 37.0634 71.6937 36.6304 69.8726 36.6733C67.743 36.8361 66.4571 37.464 65.0508 39.0357L65.0442 37.0389L60.5111 37.0402L60.5128 59.7062L65.125 59.7021L65.1184 56.36L65.125 52.1298C66.7952 53.5008 68.5818 54.1994 70.7807 54.0099C72.7164 53.844 74.4073 52.9772 75.6577 51.5094C77.4062 49.4561 77.9201 46.6027 77.6652 43.994C77.4541 41.8358 76.6359 39.6382 74.8997 38.2237ZM68.6387 40.409C69.5558 40.3131 70.5406 40.5242 71.2937 41.0569C72.328 41.7878 72.8195 42.9881 72.9886 44.1932C73.208 45.7618 73.0497 47.6029 72.0179 48.8852C71.3118 49.7627 70.459 50.1294 69.3653 50.2766C68.4102 50.3685 67.3668 50.1522 66.5841 49.5927C65.6925 48.9552 65.2215 47.9843 65.0508 46.9328C64.7918 45.343 64.8372 43.1816 65.8599 41.8464C66.5668 40.9245 67.512 40.5438 68.6387 40.409Z" fill="white"/>
<path d="M57.9114 44.6569C57.5347 39.8382 53.2713 36.2303 48.3833 36.5938C43.4838 36.9581 39.8141 41.1733 40.1917 46.0035C40.5692 50.833 44.8506 54.4443 49.7489 54.0637C54.6357 53.6848 58.2881 49.4758 57.9114 44.6569ZM48.6611 40.2421C49.5101 40.1442 50.4531 40.3549 51.1821 40.7868C52.1794 41.3773 52.7893 42.3784 53.0525 43.4762C53.4341 45.0667 53.3649 47.1395 52.4491 48.552C51.7858 49.5742 50.8788 50.0596 49.7072 50.3012C48.6411 50.3434 47.6936 50.2605 46.7864 49.6392C45.7735 48.9464 45.2276 47.8136 45.025 46.6443C44.7522 45.0684 44.8783 43.1428 45.8645 41.814C46.5675 40.8671 47.5134 40.4169 48.6611 40.2421Z" fill="white"/>
<path d="M7.85485 30.9791C8.19813 30.9327 8.56912 30.9386 8.91619 30.9275C11.4406 30.8474 14.1479 31.2771 16.0448 33.0596C17.432 34.3631 17.8403 35.925 17.8788 37.7586L13.3087 37.7757C13.2555 36.8737 13.1189 36.1533 12.4049 35.5101C11.4513 34.651 10.022 34.4474 8.7749 34.509C7.79488 34.5575 6.77329 34.8229 6.11139 35.5851C5.6293 36.1403 5.47144 36.8594 5.55235 37.5749C5.63021 38.264 5.98413 38.8132 6.56338 39.2015C7.4686 39.8087 8.62793 40.037 9.6788 40.2694C11.9918 40.7809 14.8806 41.1855 16.7357 42.745C17.8734 43.7013 18.404 44.9682 18.5118 46.4189C18.6435 48.1908 18.1633 49.8529 16.9622 51.1955C15.2918 53.0626 12.8025 53.8204 10.3555 53.9782C7.65327 54.1628 4.66627 53.6334 2.55315 51.855C1.00344 50.5515 0.346 48.8836 0.188629 46.919L4.84394 46.9117C5.05599 47.8859 5.41502 48.6982 6.23107 49.3268C7.35296 50.1912 8.92865 50.3644 10.3051 50.2124C11.3799 50.0937 12.5083 49.6806 13.18 48.8039C13.5982 48.2583 13.7459 47.5834 13.6525 46.9101C13.5561 46.2156 13.1581 45.6521 12.5685 45.2699C11.9038 44.8389 11.084 44.6275 10.324 44.4282C7.81987 43.772 4.81655 43.5565 2.72974 41.9285C1.60134 41.0483 0.94216 39.8487 0.776872 38.4397C0.573477 36.7054 0.9142 35.0787 2.03262 33.6964C3.43304 31.9654 5.69982 31.2259 7.85485 30.9791Z" fill="white"/>
<path d="M70.9705 7.26877C69.3316 6.21506 67.1674 6.02875 65.2629 6.10056C63.2017 6.23579 60.795 6.70223 59.3748 8.32949C58.615 9.20023 58.3295 10.247 58.2814 11.3702L62.5394 11.3871C63.003 10.4703 63.5679 9.8271 64.5965 9.50697C65.5285 9.21682 66.7451 9.21593 67.6119 9.68586C68.1134 9.95796 68.5143 10.4231 68.6751 10.9684C68.764 11.2666 68.7903 11.5873 68.816 11.8993C68.8201 11.9493 68.8242 11.9991 68.8285 12.0485C68.5373 12.3692 68.2792 12.5895 67.8734 12.7573C66.9139 13.1541 65.7647 13.2286 64.6709 13.2995C64.2903 13.3241 63.9165 13.3484 63.5597 13.3856C60.357 13.7195 57.3737 14.8864 57.6107 18.6198C57.6585 19.3718 57.8573 20.0224 58.184 20.6995C59.0189 22.013 60.1434 22.8317 61.685 23.1699C63.5531 23.5798 65.8122 23.3867 67.4519 22.3588C68.0185 22.0036 68.492 21.5626 68.9481 21.0791C69.0413 21.7272 69.1716 22.3509 69.3341 22.9855L73.6214 22.9771C73.1485 20.7463 73.1841 18.4314 73.2194 16.1404C73.2289 15.5225 73.2384 14.9064 73.2378 14.2941C73.2376 14.0828 73.2393 13.8673 73.241 13.649C73.2515 12.2899 73.2629 10.8207 72.823 9.5625C72.4856 8.59792 71.8299 7.82189 70.9705 7.26877ZM68.6866 15.1864L68.8153 15.255C69.0001 16.2054 68.76 17.4619 68.2643 18.2777C67.7208 19.1735 66.8399 19.8494 65.8056 20.0925C64.8579 20.3151 64.0191 20.1945 63.1976 19.6823C62.857 19.3789 62.5831 19.0619 62.4388 18.6235C62.273 18.1166 62.3011 17.5066 62.5601 17.0342C63.1357 15.9859 65.1983 15.7127 66.908 15.4862C67.5991 15.3946 68.2324 15.3107 68.6866 15.1864Z" fill="white"/>
<path d="M21.3646 30.7935L25.9514 30.7935L25.9557 39.1802C26.1631 38.9134 26.3717 38.6459 26.6082 38.4031C27.7717 37.2082 29.3635 36.6757 31.0182 36.6464C32.7345 36.6159 34.5281 37.0529 35.7778 38.2723C36.5685 39.0438 37.0869 40.0586 37.328 41.1239C37.6711 42.6402 37.4972 44.3674 37.4974 45.9198L37.4997 53.5571L32.9167 53.5588C32.8791 51.5136 32.9136 49.4612 32.9139 47.4152C32.9108 45.7628 33.3279 42.7281 32.1542 41.4221C31.6183 40.826 30.8609 40.5782 30.0728 40.537C29.0046 40.4811 27.8115 40.6165 27.0055 41.3757C26.5066 41.8458 26.2082 42.4857 26.0692 43.1452C25.7885 44.4764 25.9431 46.0133 25.9497 47.3705L25.9536 53.5571L21.3656 53.5588C21.316 50.9826 21.3613 48.3967 21.3618 45.8198L21.3646 30.7935Z" fill="white"/>
<path d="M86.5878 6.09623C86.8426 6.07696 87.0983 6.06663 87.354 6.06533C89.002 6.05573 90.5204 6.53144 91.7056 7.69689C92.4711 8.45892 93.0047 9.4166 93.2472 10.4619C93.6183 12.0297 93.4212 13.852 93.4212 15.4622L93.4311 22.9813H88.8807L88.8865 16.1573C88.8873 14.9236 88.9822 13.5862 88.8139 12.3649C88.7422 11.8442 88.6184 11.3307 88.3017 10.8975C87.8506 10.2796 87.0901 9.90833 86.3313 9.82473C85.09 9.68795 84.0054 9.87889 82.9991 10.6263C82.4993 11.1805 82.2725 11.654 82.1281 12.3828C81.8906 13.5757 82.025 14.9597 82.0267 16.1722L82.0382 22.9808L77.3484 22.9818L77.3559 6.46744L81.8724 6.46972C81.8741 7.19182 81.8815 7.91401 81.8939 8.63603C82.0052 8.49202 82.1174 8.34946 82.2321 8.20854C83.3612 6.82289 84.8417 6.28399 86.5878 6.09623Z" fill="white"/>
<path d="M113.262 6.09821C115.151 5.98452 117.04 6.29557 118.676 7.27024C120.582 8.40617 121.591 10.0668 122.118 12.1573C120.602 12.1395 119.086 12.1383 117.57 12.1539C117.217 11.3343 116.718 10.6256 115.958 10.1225C115.171 9.60057 114.187 9.38247 113.255 9.58658C112.18 9.82175 111.287 10.4607 110.701 11.3778C109.773 12.8324 109.682 14.9762 110.101 16.6064C110.395 17.7551 111.048 18.8424 112.118 19.4404C112.995 19.9307 114.135 20.0408 115.099 19.7495C116.356 19.369 117.054 18.3654 117.615 17.2681L118.306 17.2677L122.03 17.2639C121.714 18.4926 121.287 19.6063 120.467 20.6002C119.096 22.2631 117.079 23.1476 114.944 23.3658C112.587 23.6067 110.218 23.0692 108.366 21.5701C106.546 20.0976 105.531 17.9491 105.329 15.6563C105.118 13.256 105.626 10.8256 107.229 8.95108C108.781 7.13753 110.911 6.30467 113.262 6.09821Z" fill="white"/>
<path d="M34.745 6.17918C35.1693 6.15235 35.5924 6.20293 36.0151 6.23847L36.0134 10.4582L35.3329 10.4531C33.8241 10.4499 32.1129 10.5463 30.996 11.6929C30.4848 12.2177 30.1956 12.8684 30.039 13.5721C29.7632 14.8114 29.9014 16.2341 29.9067 17.5025L29.9169 22.9802C28.5667 22.9837 26.7056 23.1436 25.401 22.9437C25.2674 22.7571 25.3056 22.573 25.2981 22.349L25.2986 6.47095L29.8267 6.46851C29.8481 7.23444 29.8761 8.00013 29.911 8.76557C30.0885 8.48112 30.2774 8.21327 30.496 7.9576C31.5536 6.72068 33.1804 6.3123 34.745 6.17918Z" fill="white"/>
<path d="M97.6592 6.46924L102.327 6.47282L102.323 17.4096C102.323 19.2548 102.427 21.1437 102.302 22.982L97.6452 22.9836C97.7203 20.8405 97.6782 18.6859 97.6782 16.5412L97.6592 6.46924Z" fill="white"/>
<path d="M97.5426 0.0492319L102.716 0.0454102C102.704 1.3186 102.706 2.59188 102.72 3.86499L97.5426 3.86686V0.0492319Z" fill="white"/>
</svg>
